<?xml version="1.0" encoding="utf-8"?>
<!-- Generator: Adobe Illustrator 27.0.0, SVG Export Plug-In . SVG Version: 6.00 Build 0)  -->
<svg version="1.1" id="Ebene_1" xmlns="http://www.w3.org/2000/svg" xmlns:xlink="http://www.w3.org/1999/xlink" x="0px" y="0px"
	 viewBox="0 0 102.3 29" style="enable-background:new 0 0 102.3 29;" width="100%" height="100%" xml:space="preserve">
<style type="text/css">
	.st0{fill:#C6C6C6;}
	.st1{fill:#E30613;}
	.st2{fill:#FFCC00;}
	.st3{fill:#1A171B;}
	.st4{fill:#FFFFFF;}
</style>
<polygon class="st0" points="21.2,5.7 11.3,22.6 18.6,22.6 25.1,12.5 "/>
<polygon class="st1" points="20.1,22.6 30.9,22.6 29.5,20.1 "/>
<polygon class="st2" points="19.9,22.2 29,19.3 27.6,16.8 "/>
<polygon class="st1" points="19.6,21.8 27.1,16 25.7,13.5 "/>
<polygon class="st3" points="39.2,13.6 35.9,17.5 35.9,13.6 34.1,13.6 34.1,22.6 35.9,22.6 35.9,18.4 35.9,18.4 39.2,22.6
	41.5,22.6 37.7,17.8 41.4,13.6 "/>
<g>
	<path class="st3" d="M42.8,20.7c0-1,1.1-1.1,1.9-1.1h0.7c0,0.5-0.1,1-0.4,1.4c-0.3,0.4-0.7,0.6-1.2,0.6
		C43.3,21.5,42.8,21.2,42.8,20.7 M41.9,17.8c0.6-0.4,1.3-0.7,2-0.7c1,0,1.5,0.4,1.5,1.4h-1c-0.7,0-1.6,0.1-2.2,0.4
		c-0.7,0.3-1.1,0.9-1.1,1.9c0,1.3,1.1,2,2.3,2c0.8,0,1.6-0.4,2-1.1h0c0,0.2,0,0.6,0.1,1h1.5c0-0.5-0.1-1-0.1-1.5c0-0.5,0-1,0-1.7
		v-0.8c0-2-0.8-2.8-2.9-2.8c-0.7,0-1.6,0.2-2.3,0.5L41.9,17.8z"/>
	<path class="st3" d="M48.7,22.6h1.7v-2.4c0-1,0-2.7,1.4-2.7c0.3,0,0.6,0.1,0.8,0.1v-1.7c-0.2-0.1-0.4-0.1-0.5-0.1
		c-1,0-1.7,1-1.8,1.7h0v-1.5h-1.5V22.6z"/>
</g>
<rect x="53.6" y="12.9" class="st3" width="1.7" height="9.7"/>
<g>
	<path class="st3" d="M61,16c-0.5-0.1-1.1-0.2-1.9-0.2c-1.4,0-2.6,0.6-2.6,2.1c0,2.4,3,1.5,3,2.8c0,0.6-0.7,0.8-1.1,0.8
		c-0.6,0-1.2-0.2-1.7-0.4l-0.1,1.4c0.6,0.2,1.3,0.3,2,0.3c1.4,0,2.8-0.6,2.8-2.2c0-2.4-3-1.7-3-2.8c0-0.6,0.6-0.7,1-0.7
		c0.6,0,1,0.1,1.5,0.3L61,16z"/>
	<path class="st3" d="M62.5,22.6h1.7v-2.4c0-1,0-2.7,1.4-2.7c0.3,0,0.6,0.1,0.8,0.1v-1.7c-0.2-0.1-0.4-0.1-0.5-0.1
		c-1,0-1.7,1-1.8,1.7h0v-1.5h-1.5V22.6z"/>
	<path class="st3" d="M73,15.9h-1.7v3.2c0,0.8-0.3,2.2-1.5,2.2c-1.1,0-1.1-1.1-1.1-1.9v-3.5h-1.7v4.2c0,1.5,0.7,2.6,2.3,2.6
		c0.9,0,1.6-0.4,2.2-1.1h0v0.9H73V15.9z"/>
	<path class="st3" d="M74.4,22.6h1.7v-3.2c0-0.8,0.3-2.2,1.5-2.2c1.1,0,1.1,1.1,1.1,1.9v3.5h1.7v-4.2c0-1.5-0.7-2.6-2.3-2.6
		c-0.9,0-1.7,0.4-2.1,1.1h0v-3.9h-1.7V22.6z"/>
	<path class="st3" d="M87.3,20.8c-0.6,0.4-1.4,0.7-2.2,0.7c-1.1,0-1.8-0.6-1.9-1.7h4.6c0-2.3-0.7-4-3.2-4c-2.1,0-3.1,1.6-3.1,3.5
		c0,2.2,1.3,3.4,3.5,3.4c0.9,0,1.6-0.2,2.3-0.5V20.8z M83.2,18.6c0.1-0.9,0.6-1.6,1.5-1.6c1,0,1.4,0.7,1.4,1.6H83.2z"/>
</g>
</svg>
